<mxfile host="app.diagrams.net" modified="2021-05-17T20:33:10.596Z" agent="5.0 (Windows NT 10.0; Win64; x64) AppleWebKit/537.36 (KHTML, like Gecko) Chrome/90.0.4430.212 Safari/537.36" etag="1ZnOHjgnFWtSiZxtAPK-" version="14.6.13" type="github">
  <diagram id="PUznr5Mi1iGeSuVRIEjS" name="Page-1">
    <mxGraphModel dx="1477" dy="1743" grid="1" gridSize="10" guides="1" tooltips="1" connect="1" arrows="1" fold="1" page="1" pageScale="1" pageWidth="850" pageHeight="1100" math="0" shadow="0">
      <root>
        <mxCell id="0" />
        <mxCell id="1" parent="0" />
        <mxCell id="quoqcELOSUuHTbDsBbPP-20" value="" style="verticalAlign=top;align=left;spacingTop=8;spacingLeft=2;spacingRight=12;shape=cube;size=10;direction=south;fontStyle=4;html=1;rounded=0;shadow=0;comic=0;labelBackgroundColor=none;strokeWidth=1;fontFamily=Verdana;fontSize=12" vertex="1" parent="1">
          <mxGeometry x="610" y="-30" width="570" height="460" as="geometry" />
        </mxCell>
        <mxCell id="quoqcELOSUuHTbDsBbPP-2" value="" style="verticalAlign=top;align=left;spacingTop=8;spacingLeft=2;spacingRight=12;shape=cube;size=10;direction=south;fontStyle=4;html=1;rounded=0;shadow=0;comic=0;labelBackgroundColor=none;strokeWidth=1;fontFamily=Verdana;fontSize=12" vertex="1" parent="1">
          <mxGeometry x="640" y="70" width="490" height="330" as="geometry" />
        </mxCell>
        <mxCell id="quoqcELOSUuHTbDsBbPP-3" value="" style="shape=datastore;whiteSpace=wrap;html=1;" vertex="1" parent="1">
          <mxGeometry x="1240" y="110" width="240" height="290" as="geometry" />
        </mxCell>
        <mxCell id="quoqcELOSUuHTbDsBbPP-5" value="&lt;font style=&quot;font-size: 36px&quot;&gt;PostgreSQL&lt;/font&gt;" style="text;html=1;strokeColor=none;fillColor=none;align=center;verticalAlign=middle;whiteSpace=wrap;rounded=0;" vertex="1" parent="1">
          <mxGeometry x="1350" y="270" width="40" height="20" as="geometry" />
        </mxCell>
        <mxCell id="quoqcELOSUuHTbDsBbPP-9" value="" style="rounded=0;whiteSpace=wrap;html=1;" vertex="1" parent="1">
          <mxGeometry x="670" y="190" width="130" height="170" as="geometry" />
        </mxCell>
        <mxCell id="quoqcELOSUuHTbDsBbPP-10" value="" style="rounded=0;whiteSpace=wrap;html=1;" vertex="1" parent="1">
          <mxGeometry x="820" y="190" width="130" height="170" as="geometry" />
        </mxCell>
        <mxCell id="quoqcELOSUuHTbDsBbPP-11" value="" style="rounded=0;whiteSpace=wrap;html=1;" vertex="1" parent="1">
          <mxGeometry x="970" y="190" width="130" height="170" as="geometry" />
        </mxCell>
        <mxCell id="quoqcELOSUuHTbDsBbPP-13" value="&lt;font&gt;&lt;font style=&quot;font-size: 24px&quot;&gt;REST&lt;/font&gt;&lt;br&gt;&lt;span style=&quot;font-size: 18px&quot;&gt;&amp;nbsp;CONTROLLER&lt;/span&gt;&lt;/font&gt;" style="text;html=1;strokeColor=none;fillColor=none;align=center;verticalAlign=middle;whiteSpace=wrap;rounded=0;" vertex="1" parent="1">
          <mxGeometry x="715" y="215" width="40" height="110" as="geometry" />
        </mxCell>
        <mxCell id="quoqcELOSUuHTbDsBbPP-15" value="&lt;font style=&quot;font-size: 24px&quot;&gt;Service Layer&lt;/font&gt;" style="text;html=1;strokeColor=none;fillColor=none;align=center;verticalAlign=middle;whiteSpace=wrap;rounded=0;" vertex="1" parent="1">
          <mxGeometry x="860" y="260" width="40" height="20" as="geometry" />
        </mxCell>
        <mxCell id="quoqcELOSUuHTbDsBbPP-17" value="&lt;font style=&quot;font-size: 24px&quot;&gt;Hibernate JPA&lt;/font&gt;" style="text;html=1;strokeColor=none;fillColor=none;align=center;verticalAlign=middle;whiteSpace=wrap;rounded=0;" vertex="1" parent="1">
          <mxGeometry x="1015" y="260" width="40" height="20" as="geometry" />
        </mxCell>
        <mxCell id="quoqcELOSUuHTbDsBbPP-21" value="&lt;font style=&quot;font-size: 48px&quot;&gt;Application&lt;/font&gt;" style="text;html=1;strokeColor=none;fillColor=none;align=center;verticalAlign=middle;whiteSpace=wrap;rounded=0;" vertex="1" parent="1">
          <mxGeometry x="880" y="10" width="40" height="20" as="geometry" />
        </mxCell>
        <mxCell id="quoqcELOSUuHTbDsBbPP-30" value="" style="endArrow=classic;html=1;" edge="1" parent="1">
          <mxGeometry width="50" height="50" relative="1" as="geometry">
            <mxPoint x="421" y="270" as="sourcePoint" />
            <mxPoint x="640" y="270" as="targetPoint" />
          </mxGeometry>
        </mxCell>
        <mxCell id="quoqcELOSUuHTbDsBbPP-31" value="" style="endArrow=classic;html=1;exitX=0;exitY=0.5;exitDx=0;exitDy=0;" edge="1" parent="1">
          <mxGeometry width="50" height="50" relative="1" as="geometry">
            <mxPoint x="640" y="300" as="sourcePoint" />
            <mxPoint x="420" y="300" as="targetPoint" />
          </mxGeometry>
        </mxCell>
        <mxCell id="quoqcELOSUuHTbDsBbPP-33" value="&lt;font style=&quot;font-size: 18px&quot;&gt;POST/GET/PUT/DELETE&lt;/font&gt;" style="text;html=1;strokeColor=none;fillColor=none;align=center;verticalAlign=middle;whiteSpace=wrap;rounded=0;" vertex="1" parent="1">
          <mxGeometry x="510" y="250" width="40" height="20" as="geometry" />
        </mxCell>
        <mxCell id="quoqcELOSUuHTbDsBbPP-35" value="&lt;font style=&quot;font-size: 18px&quot;&gt;RESPONSE&lt;/font&gt;" style="text;html=1;strokeColor=none;fillColor=none;align=center;verticalAlign=middle;whiteSpace=wrap;rounded=0;" vertex="1" parent="1">
          <mxGeometry x="490" y="320" width="60" height="20" as="geometry" />
        </mxCell>
        <mxCell id="quoqcELOSUuHTbDsBbPP-37" value="&lt;font style=&quot;font-size: 36px&quot;&gt;DB&lt;/font&gt;" style="text;html=1;strokeColor=none;fillColor=none;align=center;verticalAlign=middle;whiteSpace=wrap;rounded=0;" vertex="1" parent="1">
          <mxGeometry x="1330" y="60" width="40" height="20" as="geometry" />
        </mxCell>
        <mxCell id="quoqcELOSUuHTbDsBbPP-41" value="" style="rounded=0;whiteSpace=wrap;html=1;" vertex="1" parent="1">
          <mxGeometry x="670" y="90" width="200" height="80" as="geometry" />
        </mxCell>
        <mxCell id="quoqcELOSUuHTbDsBbPP-42" value="" style="rounded=0;whiteSpace=wrap;html=1;" vertex="1" parent="1">
          <mxGeometry x="900" y="90" width="200" height="80" as="geometry" />
        </mxCell>
        <mxCell id="quoqcELOSUuHTbDsBbPP-44" value="&lt;font style=&quot;font-size: 24px&quot;&gt;Entities&lt;/font&gt;" style="text;html=1;strokeColor=none;fillColor=none;align=center;verticalAlign=middle;whiteSpace=wrap;rounded=0;" vertex="1" parent="1">
          <mxGeometry x="975" y="120" width="40" height="20" as="geometry" />
        </mxCell>
        <mxCell id="quoqcELOSUuHTbDsBbPP-45" value="&lt;font style=&quot;font-size: 24px&quot;&gt;DTOs&lt;/font&gt;" style="text;html=1;strokeColor=none;fillColor=none;align=center;verticalAlign=middle;whiteSpace=wrap;rounded=0;" vertex="1" parent="1">
          <mxGeometry x="750" y="120" width="40" height="20" as="geometry" />
        </mxCell>
        <mxCell id="quoqcELOSUuHTbDsBbPP-46" value="" style="endArrow=classic;html=1;" edge="1" parent="1">
          <mxGeometry width="50" height="50" relative="1" as="geometry">
            <mxPoint x="1130" y="269" as="sourcePoint" />
            <mxPoint x="1240" y="269" as="targetPoint" />
          </mxGeometry>
        </mxCell>
        <mxCell id="quoqcELOSUuHTbDsBbPP-47" value="" style="endArrow=classic;html=1;exitX=0;exitY=0.5;exitDx=0;exitDy=0;" edge="1" parent="1">
          <mxGeometry width="50" height="50" relative="1" as="geometry">
            <mxPoint x="1240" y="305" as="sourcePoint" />
            <mxPoint x="1130" y="305" as="targetPoint" />
          </mxGeometry>
        </mxCell>
        <mxCell id="quoqcELOSUuHTbDsBbPP-48" value="" style="rounded=0;whiteSpace=wrap;html=1;" vertex="1" parent="1">
          <mxGeometry x="250" y="40" width="170" height="390" as="geometry" />
        </mxCell>
        <mxCell id="quoqcELOSUuHTbDsBbPP-49" value="&lt;font style=&quot;font-size: 36px&quot;&gt;REST CLIENT&lt;/font&gt;" style="text;html=1;strokeColor=none;fillColor=none;align=center;verticalAlign=middle;whiteSpace=wrap;rounded=0;" vertex="1" parent="1">
          <mxGeometry x="315" y="160" width="40" height="20" as="geometry" />
        </mxCell>
        <mxCell id="quoqcELOSUuHTbDsBbPP-52" value="" style="endArrow=none;dashed=1;html=1;dashPattern=1 3;strokeWidth=2;exitX=0.5;exitY=0;exitDx=0;exitDy=0;" edge="1" parent="1" source="quoqcELOSUuHTbDsBbPP-10">
          <mxGeometry width="50" height="50" relative="1" as="geometry">
            <mxPoint x="885" y="180" as="sourcePoint" />
            <mxPoint x="885" y="80" as="targetPoint" />
          </mxGeometry>
        </mxCell>
      </root>
    </mxGraphModel>
  </diagram>
</mxfile>
